SplineFontDB: 3.2
FontName: HershoMono-Regular
FullName: Hersho Mono Regular
FamilyName: Hersho Mono
Weight: Regular
Copyright: Copyright (c) 2023, Sim Domingo
UComments: "2023-9-4: Created with FontForge (http://fontforge.org)"
Version: 001.000
ItalicAngle: 0
UnderlinePosition: -83
UnderlineWidth: 41
Ascent: 833
Descent: 167
InvalidEm: 0
LayerCount: 2
Layer: 0 0 "Back" 1
Layer: 1 0 "Fore" 0
XUID: [1021 39 -546803219 6476244]
StyleMap: 0x0000
FSType: 0
OS2Version: 0
OS2_WeightWidthSlopeOnly: 0
OS2_UseTypoMetrics: 1
CreationTime: 1693767096
ModificationTime: 315532800
PfmFamily: 17
TTFWeight: 400
TTFWidth: 5
LineGap: 75
VLineGap: 0
OS2TypoAscent: 0
OS2TypoAOffset: 1
OS2TypoDescent: 0
OS2TypoDOffset: 1
OS2TypoLinegap: 75
OS2WinAscent: 0
OS2WinAOffset: 1
OS2WinDescent: 0
OS2WinDOffset: 1
HheadAscent: 0
HheadAOffset: 1
HheadDescent: 0
HheadDOffset: 1
OS2Vendor: 'PfEd'
MarkAttachClasses: 1
DEI: 91125
LangName: 1033
Encoding: Custom
Compacted: 1
UnicodeInterp: none
NameList: AGL For New Fonts
DisplaySize: -48
AntiAlias: 1
FitToEm: 0
WinInfo: 27 27 9
BeginPrivate: 0
EndPrivate
TeXData: 1 0 0 522190 261095 174063 489685 1048576 174063 783286 444596 497025 792723 393216 433062 380633 303038 157286 324010 404750 52429 2506097 1059062 262144
BeginChars: 267 263

StartChar: o
Encoding: 111 111 0
AltUni2: 0000ba.ffffffff.0
Width: 497
VWidth: 833
Flags: HW
HStem: 10 88<193.031 303.89> 312 78<193.058 304.577>
VStem: 90 64<138.775 272.029> 343 64<138.715 272.07>
LayerCount: 2
Fore
SplineSet
248 312 m 0
 200 312 154 266 154 204 c 0
 154 140 202 98 248 98 c 0
 292 98 343 139 343 204 c 0
 343 267 295 312 248 312 c 0
248 390 m 0
 339 390 407 317 407 204 c 0
 407 91 339 10 248 10 c 0
 158 10 90 90 90 204 c 0
 90 318 157 390 248 390 c 0
EndSplineSet
Validated: 1
EndChar

StartChar: n
Encoding: 110 110 1
Width: 497
VWidth: 833
Flags: HW
HStem: 336 56<176.79 319.329>
VStem: 90 64<289.243 313.991>
LayerCount: 2
Fore
SplineSet
407 10 m 1
 343 10 l 1
 343 289 l 1
 342 291 l 2
 341 293 316 336 248 336 c 0
 193 336 163 307 154 289 c 1
 154 10 l 1
 90 10 l 1
 90 138 90 266 91 392 c 1
 154 392 l 1
 154 367 l 1
 168 373 l 2
 192 383 239 392 266 392 c 0
 287 392 406 371 406 292 c 2
 407 10 l 1
EndSplineSet
Validated: 1
EndChar

StartChar: h
Encoding: 104 104 2
Width: 497
VWidth: 833
Flags: HW
LayerCount: 2
Fore
SplineSet
176 319 m 0
 164 312 154 300 154 284 c 2
 154 284 154 30 154 20 c 1
 90 20 l 1
 90 30 91 664 91 664 c 1
 154 664 l 1
 154 664 154 387 154 377 c 1
 154 387 168 393 168 383 c 1
 194 393 232 401 259 401 c 0
 278 401 404 385 405 298 c 2
 405 298 407 71 407 20 c 1
 343 20 l 1
 343 30 344 284 344 284 c 2
 344 312 306 336 259 336 c 0
 233 336 201 333 176 319 c 0
EndSplineSet
Validated: 1
EndChar

StartChar: i
Encoding: 105 105 4
Width: 493
VWidth: 833
Flags: HW
LayerCount: 2
Fore
SplineSet
275 74 m 1
 403 74 l 1
 403 11 l 1
 243 11 l 2
 225 11 211 25 211 42 c 2
 215 308 l 1
 90 308 l 1
 90 371 l 1
 245 371 l 2
 262 371 277 356 277 339 c 0
 276 173 275 87 275 84 c 2
 275 74 l 1
238 549 m 0
 264 544 277 525 277 505 c 0
 277 478 257 457 231 457 c 2
 231 457 225 457 223 458 c 0
 198 462 187 480 187 498 c 2
 187 503 l 2
 189 529 206 550 230 550 c 0
 234 550 237 549 238 549 c 0
EndSplineSet
Validated: 1
EndChar

StartChar: j
Encoding: 106 106 5
Width: 488
VWidth: 833
Flags: HW
LayerCount: 2
Fore
SplineSet
158 2 m 1
 159 -29 165 -100 246 -100 c 0
 261 -100 274 -99 287 -94 c 0
 332 -77 336 -21 336 114 c 0
 336 162 325 218 325 288 c 2
 325 288 325 288 325 298 c 1
 266 298 l 1
 266 298 266 352 266 362 c 1
 313 361 341 361 357 361 c 0
 373 361 387 346 387 329 c 0
 387 254 398 190 398 136 c 0
 398 15 394 -59 378 -103 c 0
 358 -155 321 -167 243 -167 c 0
 159 -167 95 -125 90 2 c 1
 158 2 l 1
353 549 m 0
 379 544 391 523 391 503 c 0
 391 477 371 457 345 457 c 2
 345 457 339 457 337 458 c 0
 307 463 302 486 302 500 c 2
 302 505 l 2
 304 532 323 550 345 550 c 0
 349 550 352 549 353 549 c 0
EndSplineSet
Validated: 1
EndChar

StartChar: s
Encoding: 115 115 6
Width: 494
VWidth: 833
Flags: HW
LayerCount: 2
Fore
SplineSet
242 13 m 0
 177 13 100 55 91 109 c 1
 165 109 l 1
 172 75 215 57 242 57 c 0
 281 57 329 85 329 122 c 0
 329 161 288 172 242 172 c 0
 177 172 104 235 104 277 c 0
 104 335 171 389 240 389 c 0
 313 389 396 344 403 274 c 1
 328 274 l 1
 326 288 318 298 309 307 c 0
 286 328 257 336 240 336 c 0
 207 336 179 310 179 278 c 0
 179 249 208 223 240 223 c 0
 275 223 403 197 403 122 c 0
 403 62 345 13 242 13 c 0
EndSplineSet
Validated: 1
EndChar

StartChar: v
Encoding: 118 118 7
Width: 506
VWidth: 833
Flags: HW
LayerCount: 2
Fore
SplineSet
156 392 m 1
 245 86 l 1
 351 389 l 1
 412 389 l 1
 279 11 l 1
 212 11 l 1
 94 392 l 1
 156 392 l 1
EndSplineSet
Validated: 1
EndChar

StartChar: w
Encoding: 119 119 8
Width: 503
VWidth: 833
Flags: HW
LayerCount: 2
Fore
SplineSet
146 59 m 1
 224 388 l 1
 278 388 l 1
 333 61 l 1
 401 388 l 1
 470 388 l 1
 381 11 l 1
 305 11 l 1
 301 32 293 73 286 115 c 0
 265 235 266 235 252 300 c 1
 244 254 l 2
 238 223 196 58 186 11 c 1
 104 11 l 1
 33 388 l 1
 104 388 l 1
 146 59 l 1
EndSplineSet
Validated: 1
EndChar

StartChar: d
Encoding: 100 100 9
Width: 497
VWidth: 833
Flags: HW
LayerCount: 2
Fore
SplineSet
247 400 m 0
 275 400 303 392 330 376 c 1
 330 386 345 377 345 367 c 1
 345 377 345 666 345 666 c 2
 345 671 364 675 381 675 c 0
 395 675 407 673 407 668 c 2
 407 668 407 32 407 22 c 1
 407 27 395 29 381 29 c 0
 364 29 345 25 345 20 c 1
 345 30 345 56 345 56 c 2
 345 66 330 56 330 46 c 1
 303 29 274 20 247 20 c 0
 156 20 90 101 90 214 c 0
 90 325 154 400 247 400 c 0
247 312 m 0
 196 312 154 265 154 205 c 0
 154 145 196 98 247 98 c 0
 296 98 342 145 342 205 c 0
 342 265 296 312 247 312 c 0
EndSplineSet
Validated: 1
EndChar

StartChar: p
Encoding: 112 112 10
Width: 497
VWidth: 833
Flags: HW
LayerCount: 2
Fore
SplineSet
249 -1 m 0
 207 -1 183 14 152 32 c 1
 152 22 152 -167 152 -167 c 2
 152 -172 135 -175 119 -175 c 0
 104 -175 90 -173 90 -168 c 2
 90 -168 90 368 90 378 c 1
 90 373 104 371 119 371 c 0
 135 371 152 374 152 379 c 1
 152 369 152 344 152 344 c 2
 152 334 167 344 167 354 c 1
 194 371 222 379 249 379 c 0
 340 379 407 298 407 185 c 0
 407 74 342 -1 249 -1 c 0
249 88 m 0
 300 88 343 134 343 194 c 0
 343 254 300 301 249 301 c 0
 199 301 156 254 156 194 c 0
 156 134 199 88 249 88 c 0
EndSplineSet
Validated: 1
EndChar

StartChar: b
Encoding: 98 98 11
Width: 497
VWidth: 833
Flags: HW
LayerCount: 2
Fore
SplineSet
249 20 m 0
 222 20 194 29 167 46 c 1
 167 56 152 66 152 56 c 2
 152 56 152 30 152 20 c 1
 152 25 133 29 116 29 c 0
 102 29 90 27 90 22 c 1
 90 32 90 668 90 668 c 2
 90 673 102 675 116 675 c 0
 133 675 152 671 152 666 c 2
 152 666 152 377 152 367 c 1
 183 385 207 400 249 400 c 0
 342 400 407 325 407 214 c 0
 407 101 340 20 249 20 c 0
249 98 m 0
 300 98 343 145 343 205 c 0
 343 265 300 312 249 312 c 0
 199 312 156 265 156 205 c 0
 156 145 199 98 249 98 c 0
EndSplineSet
Validated: 1
EndChar

StartChar: q
Encoding: 113 113 12
Width: 497
VWidth: 833
Flags: HW
LayerCount: 2
Fore
SplineSet
248 381 m 0
 275 381 303 372 330 355 c 1
 330 345 345 335 345 345 c 2
 345 345 345 371 345 381 c 1
 345 376 364 372 381 372 c 0
 395 372 407 374 407 379 c 1
 407 369 407 -167 407 -167 c 2
 407 -172 395 -174 381 -174 c 0
 364 -174 345 -170 345 -165 c 2
 345 -165 345 24 345 34 c 1
 314 16 290 1 248 1 c 0
 155 1 90 76 90 187 c 0
 90 300 157 381 248 381 c 0
248 302 m 0
 197 302 154 256 154 196 c 0
 154 136 197 89 248 89 c 0
 298 89 342 136 342 196 c 0
 342 256 298 302 248 302 c 0
EndSplineSet
Validated: 1
EndChar

StartChar: g
Encoding: 103 103 13
Width: 496
VWidth: 833
Flags: HW
LayerCount: 2
Fore
SplineSet
248 380 m 0
 286 380 314 366 341 352 c 1
 341 352 341 369 341 379 c 1
 406 379 l 1
 406 354 405 285 405 202 c 0
 405 192 405 149 405 149 c 2
 405 13 404 -67 388 -110 c 0
 369 -161 332 -168 242 -168 c 0
 134 -168 96 -65 91 -20 c 1
 159 -20 l 1
 164 -73 206 -102 247 -102 c 0
 284 -102 339 -91 339 -42 c 2
 339 -42 340 20 340 30 c 1
 340 20 325 12 325 22 c 1
 299 8 272 0 248 0 c 0
 158 0 90 89 90 202 c 0
 90 312 154 380 248 380 c 0
248 312 m 0
 199 312 154 273 154 212 c 0
 154 153 197 98 248 98 c 0
 321 98 336 170 336 212 c 0
 336 263 289 312 248 312 c 0
EndSplineSet
Validated: 1
EndChar

StartChar: e
Encoding: 101 101 14
Width: 495
VWidth: 833
Flags: HW
HStem: 20 71<203.207 351.62> 348 82<197.449 300.457>
VStem: 90 71<139.316 205.454 251 310.925> 334 71<251 312.98>
LayerCount: 2
Fore
SplineSet
248 430 m 0
 322 430 402 391 405 205 c 1
 161 205 l 1
 161 205 161 205 161 195 c 0
 161 145 211 91 248 91 c 0
 274 91 316 100 350 113 c 1
 350 114 351 114 351 114 c 0
 356 114 384 65 384 56 c 1
 351 35 293 20 248 20 c 0
 171 20 90 61 90 248 c 0
 90 349 162 430 248 430 c 0
161 251 m 1
 334 251 l 1
 334 261 l 2
 334 310 290 348 248 348 c 0
 212 348 161 304 161 261 c 2
 161 251 l 1
EndSplineSet
Validated: 1
EndChar

StartChar: c
Encoding: 99 99 15
Width: 491
VWidth: 833
Flags: HW
HStem: 10 88<203.499 329.252> 312 78<203.855 319.663>
VStem: 92 69<138.735 268.821>
LayerCount: 2
Fore
SplineSet
413 310 m 1025
330 266 m 1025
399 314 m 1
 383 306 351 289 332 279 c 1
 313 300 285 312 259 312 c 0
 211 312 161 267 161 204 c 0
 161 140 213 98 259 98 c 0
 280 98 306 106 324 123 c 1
 332 119 337 116 343 113 c 0
 360 105 371 99 394 84 c 1
 363 38 315 10 259 10 c 0
 164 10 92 91 92 204 c 0
 92 317 163 390 259 390 c 0
 319 390 369 362 399 314 c 1
EndSplineSet
Validated: 1
EndChar

StartChar: a
Encoding: 97 97 16
AltUni2: 0000aa.ffffffff.0
Width: 497
VWidth: 833
Flags: HW
HStem: 10 45<180.447 312.455> 191 39<182.029 315.572> 322 62<183.434 307.183>
VStem: 90 64<80.5889 167.104> 342 65<84.117 122 122.105 168.304 213.571 288.722>
LayerCount: 2
Fore
SplineSet
406 282 m 2
 406 281 l 2
 407 266 407 122 407 122 c 1
 407 10 l 1
 342 10 l 1
 342 28 l 1
 317 20 288 10 249 10 c 0
 154 10 90 60 90 122 c 0
 90 183 152 230 248 230 c 0
 286 230 314 222 342 214 c 1
 340 270 l 1
 328 284 295 322 249 322 c 0
 213 322 176 297 162 287 c 1
 135 310 134 309 121 320 c 1
 137 338 196 383 252 384 c 2
 253 384 l 2
 318 384 404 332 406 282 c 2
339 127 m 0
 339 169 294 191 249 191 c 0
 196 191 154 163 154 124 c 0
 154 83 203 55 249 55 c 0
 293 55 339 84 339 127 c 0
EndSplineSet
Validated: 1
EndChar

StartChar: x
Encoding: 120 120 17
Width: 506
VWidth: 833
Flags: HW
LayerCount: 2
Fore
SplineSet
98 392 m 1
 158 392 l 1
 252 241 l 1
 350 390 l 1
 408 390 l 1
 286 201 l 1
 408 12 l 1
 350 12 l 1
 252 161 l 1
 158 10 l 1
 98 10 l 1
 216 201 l 1
 98 392 l 1
EndSplineSet
Validated: 1
EndChar

StartChar: y
Encoding: 121 121 18
Width: 506
VWidth: 833
Flags: HW
VStem: 94 62<310.905 382> 351 61<308.541 379>
LayerCount: 2
Fore
SplineSet
94 382 m 1
 156 382 l 1
 156 372 249 76 252 76 c 0
 255 76 351 369 351 379 c 1
 412 379 l 1
 412 369 238 -167 235 -167 c 2
 168 -167 l 1
 173 -158 215 -14 215 -5 c 1
 212 -5 94 372 94 382 c 1
EndSplineSet
Validated: 1
EndChar

StartChar: u
Encoding: 117 117 19
Width: 497
VWidth: 833
Flags: HW
HStem: 10 57<177.621 320.187>
VStem: 343 63<89.0093 113.757>
LayerCount: 2
Fore
SplineSet
90 392 m 1
 154 392 l 1
 154 114 l 1
 155 112 l 2
 156 110 181 67 249 67 c 0
 304 67 334 96 343 114 c 1
 343 392 l 1
 407 392 l 1
 407 264 407 136 406 10 c 1
 343 10 l 1
 343 36 l 1
 329 30 l 2
 305 20 258 10 231 10 c 0
 210 10 91 32 91 111 c 2
 90 392 l 1
EndSplineSet
Validated: 1
EndChar

StartChar: l
Encoding: 108 108 20
Width: 493
VWidth: 833
Flags: HW
LayerCount: 2
Fore
SplineSet
251 10 m 1
 234 11 220 25 220 42 c 0
 220 52 220 118 220 118 c 2
 220 128 222 618 222 618 c 2
 222 619 220 620 217 620 c 0
 194 620 90 588 90 579 c 1
 90 589 90 641 90 641 c 2
 90 650 219 680 249 680 c 0
 253 680 255 679 255 678 c 1
 272 677 285 664 285 647 c 2
 285 647 285 581 285 571 c 2
 285 571 284 79 284 69 c 1
 284 78 378 110 399 110 c 0
 402 110 403 109 403 108 c 2
 403 108 403 57 403 47 c 1
 403 48 401 49 397 49 c 0
 369 49 251 19 251 10 c 1
EndSplineSet
Validated: 1
EndChar

StartChar: r
Encoding: 114 114 21
Width: 491
VWidth: 833
Flags: HW
LayerCount: 2
Fore
SplineSet
357 285 m 1
 343 300 309 332 270 332 c 0
 217 332 169 260 157 237 c 1
 156 194 156 107 156 10 c 1
 92 10 l 1
 92 392 l 1
 156 392 l 1
 156 307 l 1
 174 333 l 1
 174 333 215 392 270 392 c 0
 316 392 369 349 399 316 c 1
 357 285 l 1
EndSplineSet
Validated: 1
EndChar

StartChar: m
Encoding: 109 109 22
Width: 501
VWidth: 833
Flags: HW
LayerCount: 2
Fore
SplineSet
459 10 m 1
 418 10 l 1
 418 296 l 1
 395 324 364 334 340 334 c 0
 303 334 277 308 267 296 c 1
 267 10 l 1
 230 10 l 1
 230 292 l 2
 230 304 200 334 165 334 c 0
 124 334 95 308 84 296 c 1
 84 10 l 1
 42 10 l 1
 42 388 l 1
 78 388 l 1
 78 354 l 1
 93 365 l 1
 93 365 128 388 166 388 c 0
 213 388 245 345 245 345 c 1
 252 336 l 1
 259 344 l 1
 259 344 297 388 342 388 c 0
 403 388 459 325 459 298 c 2
 459 10 l 1
EndSplineSet
Validated: 1
EndChar

StartChar: t
Encoding: 116 116 23
Width: 493
VWidth: 833
Flags: HW
LayerCount: 2
Fore
SplineSet
211 201 m 0
 211 211 211 314 211 314 c 1
 90 314 l 1
 90 324 90 392 90 392 c 1
 211 392 l 1
 211 402 211 666 211 666 c 1
 274 666 l 1
 274 666 274 402 274 392 c 1
 398 392 l 1
 398 392 398 324 398 314 c 1
 274 314 l 1
 274 314 274 206 274 196 c 0
 274 170 273 150 273 135 c 0
 273 100 276 78 319 78 c 0
 343 78 384 77 403 76 c 1
 403 76 403 30 403 20 c 1
 397 20 393 20 387 20 c 0
 372 20 350 21 282 21 c 0
 226 21 210 53 210 132 c 0
 210 133 211 199 211 201 c 0
EndSplineSet
Validated: 1
EndChar

StartChar: f
Encoding: 102 102 24
Width: 483
VWidth: 833
Flags: HW
LayerCount: 2
Fore
SplineSet
393 487 m 1
 393 492 378 494 363 494 c 0
 346 494 329 491 329 486 c 1
 329 488 l 2
 329 537 327 602 262 602 c 0
 208 602 208 532 208 484 c 2
 208 484 208 407 208 397 c 1
 255 397 l 1
 255 397 255 342 255 332 c 1
 208 332 l 1
 208 332 208 24 208 14 c 1
 146 14 l 1
 146 24 146 332 146 332 c 1
 90 332 l 1
 90 342 90 397 90 397 c 1
 146 397 l 1
 146 407 146 479 146 479 c 2
 146 574 181 666 261 666 c 0
 353 666 391 584 393 487 c 1
EndSplineSet
Validated: 1
EndChar

StartChar: k
Encoding: 107 107 25
Width: 575
VWidth: 833
Flags: HW
VStem: 93 64<20 145.916 146 171.154 218 666.538> 343 61<20 65.3335>
LayerCount: 2
Fore
SplineSet
157 218 m 1
 157 228 316 365 326 374 c 0
 396 374 l 1
 387 365 284 264 284 255 c 1
 298 241 404 29 404 20 c 1
 343 20 l 1
 343 30 245 213 239 213 c 0
 229 213 155 155 155 146 c 2
 155 146 156 30 156 20 c 1
 93 20 l 1
 93 30 93 667 93 667 c 1
 157 667 l 1
 157 667 157 228 157 218 c 1
EndSplineSet
Validated: 1
EndChar

StartChar: z
Encoding: 122 122 26
Width: 492
VWidth: 833
Flags: HW
LayerCount: 2
Fore
SplineSet
402 324 m 1
 175 66 l 1
 402 66 l 1
 402 10 l 1
 90 10 l 1
 90 72 l 1
 334 330 l 1
 90 330 l 1
 90 391 l 1
 402 391 l 1
 402 324 l 1
EndSplineSet
Validated: 1
EndChar

StartChar: H
Encoding: 72 72 27
Width: 496
VWidth: 833
Flags: HW
LayerCount: 2
Fore
SplineSet
156 372 m 1
 340 372 l 1
 340 656 l 1
 406 656 l 1
 406 10 l 1
 340 10 l 1
 340 327 l 1
 156 327 l 1
 156 10 l 1
 90 10 l 1
 90 656 l 1
 156 656 l 1
 156 372 l 1
EndSplineSet
Validated: 1
EndChar

StartChar: O
Encoding: 79 79 28
Width: 497
VWidth: 833
Flags: HW
HStem: 10 77<188.466 306.254> 588 68<197.794 302.945>
VStem: 90 65<148.348 506.952> 343 64<152.787 522.886>
LayerCount: 2
Fore
SplineSet
155 348 m 2
 155 332 l 2
 155 139 167 87 248 87 c 0
 330 87 343 150 343 343 c 0
 343 514 327 588 248 588 c 0
 179 588 155 508 155 348 c 2
407 343 m 0
 407 125 346 10 248 10 c 0
 150 10 90 122 90 343 c 0
 90 520 154 656 248 656 c 0
 348 656 407 549 407 343 c 0
EndSplineSet
Validated: 1
EndChar

StartChar: A
Encoding: 65 65 29
Width: 495
VWidth: 833
Flags: HW
LayerCount: 2
Fore
SplineSet
157 10 m 1
 92 10 l 1
 198 656 l 1
 265 656 l 1
 403 10 l 1
 330 10 l 1
 289 169 l 1
 188 169 l 1
 157 10 l 1
280 217 m 1
 237 650 l 1
 193 217 l 1
 280 217 l 1
EndSplineSet
Validated: 1
EndChar

StartChar: E
Encoding: 69 69 30
Width: 491
VWidth: 833
Flags: HW
VStem: 90 311
LayerCount: 2
Fore
SplineSet
156 598 m 1
 156 372 l 1
 295 372 l 1
 295 317 l 1
 156 317 l 1
 156 75 l 1
 401 75 l 1
 401 10 l 1
 90 10 l 1
 90 658 l 1
 401 658 l 1
 401 598 l 1
 156 598 l 1
EndSplineSet
Validated: 1
EndChar

StartChar: S
Encoding: 83 83 31
Width: 575
VWidth: 833
Flags: HW
HStem: 10 77<213.544 309.683> 597 60<191.533 279.679>
VStem: 89 73<449.736 568.616> 97 80<128.647 188> 320 70<499 550.561> 331 69<107.87 235.497>
LayerCount: 2
Fore
SplineSet
89 511 m 0xe4
 89 594 162 658 245 658 c 0
 343 658 380 540 390 499 c 1
 320 499 l 1
 310 539 282 597 237 597 c 0
 209 597 162 565 162 511 c 0xe8
 162 384 400 361 400 190 c 0
 400 123 365 10 255 10 c 0
 136 10 104 144 97 188 c 1
 177 188 l 1xd4
 184 144 211 87 261 87 c 0
 276 87 331 93 331 177 c 0
 331 304 89 354 89 511 c 0xe4
EndSplineSet
Validated: 1
EndChar

StartChar: I
Encoding: 73 73 32
Width: 493
VWidth: 833
Flags: HW
VStem: 90 312
LayerCount: 2
Fore
SplineSet
403 601 m 1
 284 601 l 1
 284 68 l 1
 403 68 l 1
 403 11 l 1
 90 11 l 1
 90 68 l 1
 214 68 l 1
 214 601 l 1
 90 601 l 1
 90 658 l 1
 403 658 l 1
 403 601 l 1
EndSplineSet
Validated: 1
EndChar

StartChar: N
Encoding: 78 78 33
Width: 496
VWidth: 833
Flags: HW
LayerCount: 2
Fore
SplineSet
160 656 m 1
 340 164 l 1
 340 656 l 1
 406 656 l 1
 406 10 l 1
 337 10 l 1
 157 514 l 1
 157 10 l 1
 90 10 l 1
 90 656 l 1
 160 656 l 1
EndSplineSet
Validated: 1
EndChar

StartChar: L
Encoding: 76 76 34
Width: 491
VWidth: 833
Flags: HW
LayerCount: 2
Fore
SplineSet
401 75 m 1
 401 10 l 1
 90 10 l 1
 90 656 l 1
 156 657 l 1
 156 74 l 1
 401 75 l 1
EndSplineSet
Validated: 1
EndChar

StartChar: Z
Encoding: 90 90 35
Width: 492
VWidth: 833
Flags: HW
VStem: 90 312
LayerCount: 2
Fore
SplineSet
90 85 m 1
 334 592 l 1
 90 592 l 1
 90 657 l 1
 402 657 l 1
 402 584 l 1
 158 77 l 1
 402 77 l 1
 402 10 l 1
 90 10 l 1
 90 85 l 1
EndSplineSet
Validated: 1
EndChar

StartChar: V
Encoding: 86 86 36
Width: 497
VWidth: 833
Flags: HW
LayerCount: 2
Fore
SplineSet
155 657 m 1
 247 61 l 1
 343 657 l 1
 405 657 l 1
 277 11 l 1
 217 11 l 1
 92 657 l 1
 155 657 l 1
EndSplineSet
Validated: 1
EndChar

StartChar: P
Encoding: 80 80 37
Width: 497
VWidth: 833
Flags: HW
LayerCount: 2
Fore
SplineSet
156 317 m 1
 156 10 l 1
 90 10 l 1
 90 655 l 1
 277 655 l 2
 343 655 407 572 407 485 c 0
 407 400 343 317 277 317 c 2
 156 317 l 1
158 367 m 1
 242 367 l 2
 291 367 349 423 349 485 c 0
 349 544 293 592 242 592 c 2
 158 592 l 1
 158 367 l 1
EndSplineSet
Validated: 1
EndChar

StartChar: T
Encoding: 84 84 38
Width: 493
VWidth: 833
Flags: HW
LayerCount: 2
Fore
SplineSet
403 601 m 1
 284 601 l 1
 284 11 l 1
 214 11 l 1
 214 601 l 1
 90 601 l 1
 90 658 l 1
 403 658 l 1
 403 601 l 1
EndSplineSet
Validated: 1
EndChar

StartChar: M
Encoding: 77 77 39
Width: 496
VWidth: 833
Flags: HW
LayerCount: 2
Fore
SplineSet
156 10 m 1
 90 10 l 1
 90 656 l 1
 158 657 l 1
 248 402 l 1
 337 657 l 1
 406 656 l 1
 406 10 l 1
 340 10 l 1
 340 514 l 1
 249 292 l 1
 156 513 l 1
 156 10 l 1
EndSplineSet
Validated: 1
EndChar

StartChar: F
Encoding: 70 70 40
Width: 491
VWidth: 833
Flags: HW
LayerCount: 2
Fore
SplineSet
156 10 m 1
 90 10 l 1
 90 656 l 1
 401 657 l 1
 401 598 l 1
 156 597 l 1
 156 372 l 1
 295 372 l 1
 294 317 l 1
 156 317 l 1
 156 10 l 1
EndSplineSet
Validated: 1
EndChar

StartChar: X
Encoding: 88 88 41
Width: 497
VWidth: 833
Flags: HW
LayerCount: 2
Fore
SplineSet
95 657 m 1
 156 657 l 1
 249 408 l 1
 342 657 l 1
 402 657 l 1
 271 353 l 1
 402 10 l 1
 337 10 l 1
 244 288 l 1
 160 10 l 1
 95 10 l 1
 223 352 l 1
 95 657 l 1
EndSplineSet
Validated: 1
EndChar

StartChar: Y
Encoding: 89 89 42
Width: 505
VWidth: 833
Flags: HW
VStem: 95 61<639.401 657>
LayerCount: 2
Fore
SplineSet
95 657 m 1
 156 657 l 1
 251 361 l 1
 350 657 l 1
 410 657 l 1
 280 336 l 1
 280 10 l 1
 222 10 l 1
 222 336 l 1
 95 657 l 1
EndSplineSet
Validated: 1
EndChar

StartChar: Q
Encoding: 81 81 43
Width: 497
VWidth: 833
Flags: HW
LayerCount: 2
Fore
SplineSet
256 656 m 0
 347 656 407 550 407 340 c 0
 407 233 391 145 361 88 c 2
 358 83 l 1
 400 10 l 1
 337 10 l 1
 320 35 l 1
 302 24 280 10 248 10 c 0
 149 10 90 122 90 318 c 0
 90 530 159 656 256 656 c 0
249 87 m 0
 264 87 264 87 282 93 c 1
 214 222 l 1
 275 223 l 1
 325 142 l 1
 331 163 l 2
 341 200 343 253 343 331 c 0
 343 524 323 588 254 588 c 0
 180 588 155 512 155 346 c 2
 155 336 l 2
 155 136 168 87 247 87 c 0
 248 87 248 87 249 87 c 0
EndSplineSet
Validated: 1
EndChar

StartChar: U
Encoding: 85 85 44
Width: 499
VWidth: 833
Flags: HW
HStem: 10 77<191.461 308.504>
VStem: 90 58<141.4 342> 353 56<148.091 342>
LayerCount: 2
Fore
SplineSet
353 342 m 0
 353 429 347 574 347 658 c 1
 409 658 l 1
 409 281 l 2
 409 66 360 10 248 10 c 0
 137 10 90 66 90 281 c 2
 90 657 l 1
 151 657 l 1
 149 558 148 429 148 342 c 0
 148 157 168 87 250 87 c 0
 332 87 353 162 353 342 c 0
EndSplineSet
Validated: 1
EndChar

StartChar: R
Encoding: 82 82 45
Width: 497
VWidth: 833
Flags: HW
LayerCount: 2
Fore
SplineSet
301 322 m 2
 290 319 l 1
 404 10 l 1
 338 10 l 1
 231 317 l 1
 157 317 l 1
 157 10 l 1
 91 10 l 1
 91 655 l 1
 278 655 l 2
 344 655 406 573 406 485 c 0
 406 411 358 338 301 322 c 2
159 367 m 1
 242 367 l 2
 291 367 350 423 350 485 c 0
 350 544 294 592 242 592 c 2
 159 592 l 1
 159 367 l 1
EndSplineSet
Validated: 1
EndChar

StartChar: D
Encoding: 68 68 46
Width: 497
VWidth: 833
Flags: HW
LayerCount: 2
Fore
SplineSet
250 10 m 2
 90 10 l 1
 90 655 l 1
 250 655 l 2
 311 655 407 512 407 332 c 0
 407 167 310 10 250 10 c 2
168 588 m 2
 158 588 l 1
 158 63 l 1
 214 63 l 2
 264 63 349 187 349 332 c 0
 349 485 266 589 214 589 c 0
 195 589 192 589 188 588 c 2
 188 588 186 588 168 588 c 2
EndSplineSet
Validated: 1
EndChar

StartChar: K
Encoding: 75 75 47
Width: 495
VWidth: 833
Flags: HW
LayerCount: 2
Fore
SplineSet
162 10 m 1
 95 10 l 1
 95 657 l 1
 162 657 l 1
 162 434 l 1
 335 657 l 1
 400 657 l 1
 159 333 l 1
 398 10 l 1
 335 10 l 1
 162 228 l 1
 162 10 l 1
EndSplineSet
Validated: 1
EndChar

StartChar: B
Encoding: 66 66 48
Width: 497
VWidth: 833
Flags: HW
LayerCount: 2
Fore
SplineSet
157 285 m 1
 157 60 l 1
 241 60 l 2
 290 60 347 116 347 178 c 0
 347 236 292 286 241 286 c 0
 237 286 168 285 167 285 c 2
 157 285 l 1
158 367 m 1
 242 367 l 2
 291 367 349 422 349 484 c 0
 349 543 294 592 242 592 c 2
 158 592 l 1
 158 367 l 1
340 340 m 2
 330 332 l 1
 340 324 l 2
 377 293 405 236 405 178 c 0
 405 91 362 10 275 10 c 2
 90 10 l 1
 90 655 l 1
 277 655 l 2
 357 655 407 569 407 484 c 0
 407 427 378 370 340 340 c 2
EndSplineSet
Validated: 1
EndChar

StartChar: C
Encoding: 67 67 49
Width: 497
VWidth: 833
Flags: HW
HStem: 10 78<200.514 326.021> 588 68<199.741 320.269>
VStem: 90 65<152.466 506.152> 339 65<100.474 182.292 497.737 566.976>
LayerCount: 2
Fore
SplineSet
339 481 m 1
 339 516 336 539 326 557 c 0
 311 583 284 588 250 588 c 0
 180 588 155 511 155 332 c 0
 155 164 181 88 250 88 c 0
 287 88 318 89 332 116 c 0
 342 134 343 160 343 199 c 1
 407 182 l 1
 405 52 362 10 248 10 c 0
 150 10 90 123 90 343 c 0
 90 518 155 656 250 656 c 0
 359 656 402 613 404 498 c 1
 339 481 l 1
EndSplineSet
Validated: 1
EndChar

StartChar: G
Encoding: 71 71 50
Width: 497
VWidth: 833
Flags: HW
LayerCount: 2
Fore
SplineSet
338 478 m 1
 338 514 334 540 324 558 c 0
 309 584 282 588 248 588 c 0
 178 588 155 521 155 342 c 0
 155 175 178 88 248 88 c 0
 341 88 345 205 347 267 c 1
 258 267 l 1
 258 312 l 1
 407 312 l 1
 406 167 377 10 246 10 c 0
 148 10 90 123 90 343 c 0
 90 529 145 655 248 656 c 2
 249 656 l 1
 250 656 l 2
 343 656 398 607 401 479 c 1
 338 478 l 1
EndSplineSet
Validated: 1
EndChar

StartChar: J
Encoding: 74 74 51
Width: 498
VWidth: 833
Flags: HW
LayerCount: 2
Fore
SplineSet
152 200 m 1
 164 125 192 87 249 87 c 0
 330 87 352 162 352 342 c 0
 352 429 346 574 346 658 c 1
 408 658 l 1
 408 281 l 2
 408 66 359 10 247 10 c 0
 151 10 102 54 90 200 c 1
 152 200 l 1
EndSplineSet
Validated: 1
EndChar

StartChar: W
Encoding: 87 87 52
Width: 495
VWidth: 833
Flags: HW
LayerCount: 2
Fore
SplineSet
162 657 m 1
 168 175 l 1
 245 315 l 1
 310 174 l 1
 339 657 l 1
 405 657 l 1
 370 11 l 1
 299 10 l 1
 244 220 l 1
 181 11 l 1
 119 11 l 1
 90 657 l 1
 162 657 l 1
EndSplineSet
Validated: 1
EndChar

StartChar: parenleft
Encoding: 40 40 53
Width: 518
VWidth: 833
Flags: HW
LayerCount: 2
Fore
SplineSet
203 332 m 0
 203 210 223 136 251 92 c 0
 286 36 334 28 362 28 c 2
 373 28 l 1
 373 -25 l 1
 324 -25 l 2
 289 -25 239 -12 200 52 c 0
 169 104 145 190 145 332 c 0
 145 682 291 689 324 689 c 2
 373 689 l 1
 373 623 l 1
 362 623 l 2
 298 623 203 604 203 332 c 0
EndSplineSet
Validated: 1
EndChar

StartChar: parenright
Encoding: 41 41 54
Width: 518
VWidth: 833
Flags: HW
LayerCount: 2
Fore
SplineSet
315 332 m 0
 315 604 220 623 156 623 c 2
 145 623 l 1
 145 689 l 1
 194 689 l 2
 229 689 279 677 318 612 c 0
 349 560 373 473 373 332 c 0
 373 62 287 -25 194 -25 c 2
 145 -25 l 1
 145 28 l 1
 156 28 l 2
 306 28 315 243 315 332 c 0
EndSplineSet
Validated: 1
EndChar

StartChar: bracketleft
Encoding: 91 91 55
Width: 518
VWidth: 833
Flags: HW
LayerCount: 2
Fore
SplineSet
253 675 m 0
 201 675 197 595 197 332 c 0
 197 213 197 134 202 83 c 0
 207 21 220 -8 253 -8 c 0
 320 -8 334 -7 362 -7 c 2
 373 -7 l 1
 373 -69 l 1
 324 -69 l 2
 308 -69 296 -69 281 -70 c 0
 260 -71 234 -72 188 -72 c 0
 183 -72 179 -71 175 -65 c 0
 149 -32 145 110 145 332 c 2
 145 365 l 2
 145 480 145 561 147 618 c 0
 151 737 165 742 188 742 c 2
 324 745 l 1
 373 745 l 1
 373 679 l 1
 362 679 l 2
 361 679 260 675 253 675 c 0
EndSplineSet
Validated: 1
EndChar

StartChar: bracketright
Encoding: 93 93 56
Width: 518
VWidth: 833
Flags: HW
LayerCount: 2
Fore
SplineSet
265 -8 m 0
 298 -8 311 21 316 83 c 0
 321 134 321 213 321 332 c 0
 321 595 317 675 265 675 c 0
 258 675 157 679 156 679 c 2
 145 679 l 1
 145 745 l 1
 194 745 l 1
 194 745 194 745 330 742 c 0
 338 742 343 741 347 739 c 0
 373 724 373 629 373 365 c 2
 373 332 l 2
 373 110 369 -32 343 -65 c 0
 339 -71 335 -72 330 -72 c 0
 284 -72 258 -71 237 -70 c 0
 222 -69 210 -69 194 -69 c 2
 145 -69 l 1
 145 -7 l 1
 156 -7 l 2
 157 -7 225 -8 265 -8 c 0
EndSplineSet
Validated: 1
EndChar

StartChar: backslash
Encoding: 92 92 57
Width: 526
VWidth: 833
Flags: HW
LayerCount: 2
Fore
SplineSet
179 658 m 1
 422 11 l 1
 343 11 l 1
 104 658 l 1
 179 658 l 1
EndSplineSet
Validated: 1
EndChar

StartChar: bar
Encoding: 124 124 58
Width: 531
VWidth: 833
Flags: HW
LayerCount: 2
Fore
SplineSet
293 742 m 1
 293 -76 l 1
 238 -76 l 1
 238 742 l 1
 293 742 l 1
EndSplineSet
Validated: 1
EndChar

StartChar: slash
Encoding: 47 47 59
Width: 526
VWidth: 833
Flags: HW
LayerCount: 2
Fore
SplineSet
183 11 m 1
 104 11 l 1
 347 658 l 1
 422 658 l 1
 183 11 l 1
EndSplineSet
Validated: 1
EndChar

StartChar: exclam
Encoding: 33 33 60
Width: 525
VWidth: 833
Flags: HW
LayerCount: 2
Fore
SplineSet
302 657 m 1
 302 236 l 1
 226 236 l 1
 226 657 l 1
 302 657 l 1
192 78 m 0
 192 113 229 148 264 148 c 0
 299 148 332 114 332 79 c 0
 332 43 299 9 264 9 c 0
 228 9 192 43 192 78 c 0
EndSplineSet
Validated: 1
EndChar

StartChar: one
Encoding: 49 49 61
AltUni2: 0000b9.ffffffff.0
Width: 493
VWidth: 833
Flags: HW
LayerCount: 2
Fore
SplineSet
213 582 m 1
 90 513 l 1
 90 592 l 1
 205 657 l 1
 284 658 l 1
 284 68 l 1
 403 68 l 1
 403 11 l 1
 90 11 l 1
 90 68 l 1
 214 68 l 1
 213 582 l 1
EndSplineSet
Validated: 1
EndChar

StartChar: two
Encoding: 50 50 62
AltUni2: 0000b2.ffffffff.0
Width: 490
VWidth: 833
Flags: HW
LayerCount: 2
Fore
SplineSet
244 592 m 0
 209 592 185 569 140 528 c 0
 126 515 110 501 90 484 c 1
 90 562 l 1
 103 573 114 584 125 593 c 0
 173 636 199 658 243 658 c 0
 326 658 400 590 400 483 c 0
 400 353 264 191 176 77 c 1
 393 77 l 1
 393 10 l 1
 90 10 l 1
 90 83 l 1
 228 231 326 370 326 477 c 0
 326 583 280 592 244 592 c 0
EndSplineSet
Validated: 1
EndChar

StartChar: three
Encoding: 51 51 63
AltUni2: 0000b3.ffffffff.0
Width: 492
VWidth: 833
Flags: HW
LayerCount: 2
Fore
SplineSet
323 342 m 2
 313 334 l 1
 323 326 l 2
 367 290 396 228 396 179 c 0
 396 87 330 10 252 10 c 0
 201 10 134 60 94 135 c 1
 155 135 l 1
 180 92 220 62 249 62 c 0
 294 62 338 113 338 170 c 0
 338 223 312 255 282 293 c 0
 273 306 265 320 256 337 c 1
 263 348 270 358 277 368 c 0
 310 404 340 437 340 486 c 0
 340 551 292 592 235 592 c 0
 209 592 174 572 153 544 c 1
 94 544 l 1
 104 560 121 587 145 610 c 0
 171 636 204 657 235 657 c 0
 323 657 398 573 398 471 c 0
 398 434 367 378 323 342 c 2
EndSplineSet
Validated: 1
EndChar

StartChar: four
Encoding: 52 52 64
Width: 499
VWidth: 833
Flags: HW
LayerCount: 2
Fore
SplineSet
259 277 m 1
 264 543 l 1
 153 277 l 1
 259 277 l 1
90 285 m 1
 249 658 l 1
 330 658 l 1
 330 277 l 1
 409 277 l 1
 409 215 l 1
 330 215 l 1
 330 161 l 2
 330 107 330 73 331 11 c 1
 258 10 l 1
 260 215 l 1
 90 215 l 1
 90 285 l 1
EndSplineSet
Validated: 1
EndChar

StartChar: five
Encoding: 53 53 65
Width: 489
VWidth: 833
Flags: HW
LayerCount: 2
Fore
SplineSet
226 10 m 0
 164 10 107 69 91 87 c 1
 128 148 l 1
 131 145 135 142 138 139 c 0
 159 118 183 93 226 93 c 0
 260 93 320 131 320 222 c 0
 320 292 261 333 231 333 c 2
 115 333 l 1
 115 657 l 1
 353 657 l 1
 353 592 l 1
 183 592 l 1
 183 419 l 1
 239 419 l 2
 292 419 398 323 398 219 c 0
 398 114 320 10 226 10 c 0
EndSplineSet
Validated: 1
EndChar

StartChar: seven
Encoding: 55 55 66
Width: 486
VWidth: 833
Flags: HW
LayerCount: 2
Fore
SplineSet
92 657 m 1
 394 657 l 1
 162 10 l 1
 97 10 l 1
 311 592 l 1
 92 592 l 1
 92 657 l 1
EndSplineSet
Validated: 1
EndChar

StartChar: eight
Encoding: 56 56 67
Width: 497
VWidth: 833
Flags: HW
LayerCount: 2
Fore
SplineSet
243 655 m 0
 313 655 368 596 368 508 c 0
 368 457 349 414 321 387 c 2
 312 378 l 1
 323 371 l 2
 373 342 407 283 407 204 c 0
 407 91 339 10 248 10 c 0
 158 10 90 90 90 204 c 0
 90 279 121 338 167 368 c 2
 178 375 l 1
 168 383 l 2
 138 410 118 453 118 508 c 0
 118 598 170 655 243 655 c 0
243 581 m 0
 212 581 182 549 182 508 c 0
 182 465 214 438 243 438 c 0
 272 438 303 464 303 508 c 0
 303 552 273 581 243 581 c 0
248 312 m 0
 200 312 154 266 154 204 c 0
 154 140 202 98 248 98 c 0
 292 98 343 139 343 204 c 0
 343 267 295 312 248 312 c 0
EndSplineSet
Validated: 1
EndChar

StartChar: zero
Encoding: 48 48 68
Width: 497
VWidth: 833
Flags: HW
LayerCount: 2
Fore
SplineSet
343 344 m 2
 343 399 343 399 340 456 c 1
 172 134 l 1
 183 111 199 87 248 87 c 0
 330 87 343 150 343 343 c 2
 343 344 l 2
155 331 m 2
 155 280 155 280 158 225 c 1
 323 531 l 1
 321 536 l 2
 306 573 279 588 248 588 c 0
 179 588 155 508 155 348 c 2
 155 343 l 1
 155 331 l 2
407 343 m 0
 407 125 346 10 248 10 c 0
 150 10 90 122 90 343 c 0
 90 520 154 656 248 656 c 0
 348 656 407 549 407 343 c 0
EndSplineSet
Validated: 1
EndChar

StartChar: nine
Encoding: 57 57 69
Width: 486
VWidth: 833
Flags: HW
LayerCount: 2
Fore
SplineSet
242 355 m 0
 291 355 332 400 332 462 c 0
 332 525 288 568 242 568 c 0
 196 568 155 526 155 462 c 0
 155 400 194 355 242 355 c 0
194 15 m 1
 183 23 161 38 139 55 c 1
 248 184 301 307 301 308 c 2
 283 317 l 1
 278 309 267 295 246 295 c 0
 245 295 243 295 242 295 c 0
 193 299 90 336 90 462 c 0
 90 575 157 658 242 658 c 0
 326 658 396 576 396 462 c 0
 396 296 318 177 194 15 c 1
EndSplineSet
Validated: 1
EndChar

StartChar: six
Encoding: 54 54 70
Width: 497
VWidth: 833
Flags: HW
LayerCount: 2
Fore
SplineSet
260 607 m 0
 271 622 284 637 298 654 c 1
 310 646 335 628 358 611 c 1
 244 482 190 360 190 359 c 2
 178 335 l 1
 211 348 211 348 223 355 c 0
 237 364 248 371 266 372 c 2
 273 372 l 2
 339 372 407 312 407 204 c 0
 407 91 339 10 248 10 c 0
 158 10 90 90 90 204 c 2
 90 228 l 2
 90 413 151 477 260 607 c 0
248 312 m 0
 200 312 154 266 154 204 c 0
 154 140 202 98 248 98 c 0
 292 98 343 139 343 204 c 0
 343 267 295 312 248 312 c 0
EndSplineSet
Validated: 1
EndChar

StartChar: numbersign
Encoding: 35 35 71
Width: 524
VWidth: 833
Flags: HW
LayerCount: 2
Fore
SplineSet
319 286 m 1
 326 433 l 1
 229 434 l 1
 220 288 l 1
 319 286 l 1
356 242 m 1
 346 11 l 1
 306 11 l 1
 316 242 l 1
 216 242 l 1
 199 11 l 1
 159 11 l 1
 169 242 l 1
 100 242 l 1
 100 293 l 1
 172 291 l 1
 179 434 l 1
 100 434 l 1
 100 472 l 1
 180 472 l 1
 189 658 l 1
 246 658 l 1
 232 472 l 1
 327 472 l 1
 336 658 l 1
 374 658 l 1
 365 473 l 1
 424 473 l 1
 424 433 l 1
 364 433 l 1
 357 284 l 1
 424 282 l 1
 424 242 l 1
 356 242 l 1
EndSplineSet
Validated: 1
EndChar

StartChar: dollar
Encoding: 36 36 72
Width: 499
VWidth: 833
Flags: HW
LayerCount: 2
Fore
SplineSet
280 124 m 2
 332 133 340 179 340 200 c 0
 340 207 339 212 339 214 c 0
 338 247 307 267 268 291 c 1
 268 122 l 1
 280 124 l 2
210 555 m 2
 185 547 161 526 161 492 c 0
 161 460 181 437 207 416 c 2
 223 403 l 1
 223 559 l 1
 210 555 l 2
276 602 m 2
 357 585 389 506 398 476 c 1
 327 476 l 1
 322 490 310 519 284 539 c 2
 268 551 l 1
 268 373 l 1
 338 333 409 289 409 212 c 0
 409 160 379 73 277 62 c 2
 268 61 l 1
 268 10 l 1
 223 10 l 1
 223 63 l 1
 216 65 l 2
 130 86 105 176 99 208 c 1
 176 208 l 1
 179 194 186 166 206 146 c 2
 223 128 l 1
 223 323 l 1
 160 362 90 408 90 476 c 0
 90 537 146 592 215 604 c 1
 223 606 l 1
 223 657 l 1
 268 657 l 1
 268 604 l 1
 276 602 l 2
EndSplineSet
Validated: 1
EndChar

StartChar: percent
Encoding: 37 37 73
Width: 495
VWidth: 833
Flags: HW
LayerCount: 2
Fore
SplineSet
228 148 m 1
 213 154 l 1
 150 11 l 1
 94 11 l 1
 265 470 l 1
 264 471 l 1
 343 658 l 1
 399 658 l 1
 227 199 l 1
 241 190 l 1
 254 215 275 230 307 230 c 0
 365 230 403 188 403 122 c 0
 403 56 365 10 307 10 c 0
 257 10 226 56 226 122 c 0
 226 132 227 140 228 148 c 1
185 655 m 0
 234 655 266 613 266 547 c 0
 266 535 266 535 256 476 c 1
 251 479 l 1
 238 452 218 435 185 435 c 0
 132 435 92 481 92 547 c 0
 92 613 131 655 185 655 c 0
185 616 m 0
 147 616 122 585 122 547 c 0
 122 508 150 480 185 480 c 0
 218 480 240 506 240 547 c 0
 240 587 220 616 185 616 c 0
307 191 m 0
 272 191 250 161 250 122 c 0
 250 82 274 55 307 55 c 0
 342 55 373 80 373 122 c 0
 373 162 344 191 307 191 c 0
EndSplineSet
Validated: 1
EndChar

StartChar: question
Encoding: 63 63 74
Width: 513
VWidth: 833
Flags: HW
LayerCount: 2
Fore
SplineSet
346 506 m 0
 346 574 317 595 255 595 c 0
 203 595 176 552 168 536 c 1
 103 538 l 1
 111 553 127 578 149 602 c 0
 176 632 212 657 255 657 c 0
 341 657 410 607 410 506 c 0
 410 478 383 450 352 420 c 0
 322 390 287 358 287 316 c 0
 287 279 288 243 288 226 c 1
 216 226 l 1
 217 243 218 279 218 316 c 0
 218 380 346 448 346 506 c 0
183 78 m 0
 183 113 219 148 254 148 c 0
 289 148 324 114 324 79 c 0
 324 44 290 9 255 9 c 0
 219 9 183 43 183 78 c 0
EndSplineSet
Validated: 1
EndChar

StartChar: braceleft
Encoding: 123 123 75
Width: 518
VWidth: 833
Flags: HW
LayerCount: 2
Fore
SplineSet
323 -25 m 2
 271 -25 230 -25 223 251 c 0
 223 275 157 310 145 332 c 0
 145 334 147 340 153 346 c 0
 176 372 223 398 224 423 c 0
 233 678 273 689 323 689 c 2
 373 689 l 1
 373 623 l 1
 345 623 l 2
 299 623 286 593 281 423 c 0
 280 417 265 401 255 391 c 0
 234 369 216 351 216 332 c 0
 216 323 221 315 227 308 c 0
 243 288 277 261 281 250 c 0
 287 50 303 28 358 28 c 2
 373 28 l 1
 373 -25 l 1
 323 -25 l 2
EndSplineSet
Validated: 1
EndChar

StartChar: braceright
Encoding: 125 125 76
Width: 518
VWidth: 833
Flags: HW
LayerCount: 2
Fore
SplineSet
195 -25 m 2
 145 -25 l 1
 145 28 l 1
 160 28 l 2
 215 28 231 50 237 250 c 0
 239 256 247 264 264 281 c 0
 288 304 302 318 302 332 c 0
 302 342 297 351 291 360 c 0
 275 383 238 412 237 423 c 0
 232 593 219 623 173 623 c 2
 145 623 l 1
 145 689 l 1
 195 689 l 2
 245 689 285 678 294 423 c 0
 294 414 300 406 306 399 c 0
 325 378 373 347 373 332 c 1
 369 324 350 308 337 298 c 0
 311 276 295 264 295 251 c 0
 292 130 282 61 268 23 c 0
 252 -20 230 -25 195 -25 c 2
EndSplineSet
Validated: 1
EndChar

StartChar: less
Encoding: 60 60 77
Width: 526
VWidth: 833
Flags: HW
LayerCount: 2
Fore
SplineSet
421 314 m 1
 187 202 l 1
 421 80 l 1
 421 14 l 1
 105 202 l 1
 421 383 l 1
 421 314 l 1
EndSplineSet
Validated: 1
EndChar

StartChar: greater
Encoding: 62 62 78
Width: 526
VWidth: 833
Flags: HW
LayerCount: 2
Fore
SplineSet
421 202 m 1
 105 14 l 1
 105 80 l 1
 339 202 l 1
 105 314 l 1
 105 383 l 1
 421 202 l 1
EndSplineSet
Validated: 1
EndChar

StartChar: period
Encoding: 46 46 79
Width: 525
VWidth: 833
Flags: HW
LayerCount: 2
Fore
SplineSet
192 78 m 0
 192 113 229 148 264 148 c 0
 299 148 332 114 332 79 c 0
 332 43 299 9 264 9 c 0
 228 9 192 43 192 78 c 0
EndSplineSet
Validated: 1
EndChar

StartChar: comma
Encoding: 44 44 80
Width: 524
VWidth: 833
Flags: HW
LayerCount: 2
Fore
SplineSet
200 78 m 0
 200 113 236 148 271 148 c 0
 306 148 340 114 340 79 c 0
 340 52 319 23 293 12 c 1
 289 11 l 1
 247 -88 l 1
 184 -87 l 1
 218 35 l 1
 212 43 200 58 200 78 c 0
EndSplineSet
Validated: 1
EndChar

StartChar: quotesingle
Encoding: 39 39 81
Width: 529
VWidth: 833
Flags: HW
LayerCount: 2
Fore
SplineSet
310 657 m 1
 293 428 l 1
 234 428 l 1
 219 656 l 1
 310 657 l 1
EndSplineSet
Validated: 1
EndChar

StartChar: quotedbl
Encoding: 34 34 82
Width: 527
VWidth: 833
Flags: HW
LayerCount: 2
Fore
SplineSet
185 657 m 1
 168 428 l 1
 108 428 l 1
 94 656 l 1
 185 657 l 1
433 657 m 1
 417 428 l 1
 358 428 l 1
 342 656 l 1
 433 657 l 1
EndSplineSet
Validated: 1
EndChar

StartChar: colon
Encoding: 58 58 83
Width: 525
VWidth: 833
Flags: HW
LayerCount: 2
Fore
SplineSet
192 93 m 0
 192 128 229 163 264 163 c 0
 299 163 332 130 332 95 c 0
 332 59 299 25 264 25 c 0
 228 25 192 58 192 93 c 0
192 301 m 0
 192 336 229 371 264 371 c 0
 299 371 332 337 332 302 c 0
 332 266 299 232 264 232 c 0
 228 232 192 266 192 301 c 0
EndSplineSet
Validated: 1
EndChar

StartChar: semicolon
Encoding: 59 59 84
Width: 524
VWidth: 833
Flags: HW
LayerCount: 2
Fore
SplineSet
200 301 m 0
 200 336 236 371 271 371 c 0
 306 371 340 337 340 302 c 0
 340 266 308 232 273 232 c 0
 237 232 200 266 200 301 c 0
200 92 m 0
 200 127 236 162 271 162 c 0
 306 162 340 129 340 94 c 0
 340 67 319 38 293 27 c 1
 289 26 l 1
 247 -73 l 1
 184 -72 l 1
 218 50 l 1
 211 59 200 73 200 92 c 0
EndSplineSet
Validated: 1
EndChar

StartChar: plus
Encoding: 43 43 85
Width: 513
VWidth: 833
Flags: HW
LayerCount: 2
Fore
SplineSet
292 462 m 1
 292 317 l 1
 413 317 l 1
 413 248 l 1
 292 248 l 1
 292 82 l 1
 224 82 l 1
 224 248 l 1
 100 248 l 1
 100 317 l 1
 224 317 l 1
 224 462 l 1
 292 462 l 1
EndSplineSet
Validated: 1
EndChar

StartChar: equal
Encoding: 61 61 86
Width: 512
VWidth: 833
Flags: HW
LayerCount: 2
Fore
SplineSet
412 414 m 1
 412 340 l 1
 100 340 l 1
 100 414 l 1
 412 414 l 1
412 229 m 1
 412 155 l 1
 100 155 l 1
 100 229 l 1
 412 229 l 1
EndSplineSet
Validated: 1
EndChar

StartChar: hyphen
Encoding: 45 45 87
Width: 526
VWidth: 833
Flags: HW
LayerCount: 2
Fore
SplineSet
426 248 m 1
 100 248 l 1
 100 317 l 1
 426 317 l 1
 426 248 l 1
EndSplineSet
Validated: 1
EndChar

StartChar: underscore
Encoding: 95 95 88
Width: 532
VWidth: 833
Flags: HW
LayerCount: 2
Fore
SplineSet
475 -78 m 1
 57 -78 l 1
 57 -10 l 1
 475 -10 l 1
 475 -78 l 1
EndSplineSet
Validated: 1
EndChar

StartChar: asterisk
Encoding: 42 42 89
Width: 519
VWidth: 833
Flags: HW
LayerCount: 2
Fore
SplineSet
270 462 m 1
 270 306 l 1
 394 406 l 1
 415 377 l 1
 296 285 l 1
 408 215 l 1
 385 184 l 1
 270 262 l 1
 270 82 l 1
 244 82 l 1
 244 261 l 1
 130 177 l 1
 107 207 l 1
 222 285 l 1
 104 367 l 1
 125 397 l 1
 244 310 l 1
 244 462 l 1
 270 462 l 1
EndSplineSet
Validated: 1
EndChar

StartChar: asciicircum
Encoding: 94 94 90
Width: 526
VWidth: 833
Flags: HW
LayerCount: 2
Fore
SplineSet
260 649 m 1
 418 402 l 1
 352 402 l 1
 260 552 l 1
 178 402 l 1
 108 402 l 1
 260 649 l 1
EndSplineSet
Validated: 1
EndChar

StartChar: ampersand
Encoding: 38 38 91
Width: 538
VWidth: 833
Flags: HW
LayerCount: 2
Fore
SplineSet
213 74 m 0
 256 74 285 141 310 203 c 1
 280 257 256 298 232 337 c 1
 185 295 155 268 155 193 c 0
 155 126 174 74 213 74 c 0
373 528 m 0
 373 452 306 396 280 374 c 1
 309 331 309 330 325 300 c 0
 336 280 338 276 352 251 c 1
 361 264 l 2
 376 284 394 326 403 349 c 1
 437 301 l 1
 423 271 391 199 379 177 c 1
 390 134 421 52 430 10 c 1
 374 10 l 1
 372 21 367 37 362 54 c 0
 352 90 352 90 343 134 c 1
 330 104 l 2
 303 39 287 10 229 10 c 0
 140 10 101 87 101 194 c 0
 101 305 147 352 177 383 c 1
 168 390 l 2
 131 418 101 458 101 517 c 0
 101 600 156 658 236 658 c 0
 318 658 373 598 373 528 c 0
303 511 m 0
 303 551 276 593 236 593 c 0
 196 593 162 551 162 509 c 0
 162 468 191 449 234 421 c 1
 244 428 244 429 252 435 c 0
 277 454 303 472 303 511 c 0
EndSplineSet
Validated: 1
EndChar

StartChar: at
Encoding: 64 64 92
Width: 535
VWidth: 833
Flags: HW
LayerCount: 2
Fore
SplineSet
256 326 m 2
 256 320 l 2
 256 298 256 247 275 213 c 0
 285 196 300 181 323 181 c 0
 376 181 386 243 386 291 c 0
 386 306 385 326 385 326 c 1
 385 326 386 354 386 362 c 0
 386 389 386 475 323 475 c 0
 302 475 287 465 277 451 c 0
 257 423 254 380 254 352 c 0
 254 340 256 329 256 326 c 2
134 326 m 0
 134 208 212 56 324 56 c 0
 353 56 392 62 432 85 c 1
 432 46 l 1
 427 41 416 35 383 25 c 0
 331 11 331 11 324 11 c 0
 187 11 100 226 100 326 c 0
 100 461 185 658 323 658 c 0
 364 658 376 641 395 607 c 0
 431 545 435 404 435 345 c 2
 435 326 l 2
 435 277 413 140 323 140 c 0
 250 140 218 218 218 326 c 0
 218 439 247 515 323 515 c 0
 345 515 347 513 350 510 c 0
 359 501 362 499 390 483 c 1
 386 505 l 2
 379 539 358 614 323 614 c 0
 226 614 134 446 134 326 c 0
EndSplineSet
Validated: 1
EndChar

StartChar: asciitilde
Encoding: 126 126 93
Width: 526
VWidth: 833
Flags: HW
LayerCount: 2
Fore
SplineSet
426 306 m 1
 426 246 l 1
 399 216 369 196 353 196 c 0
 287 196 249 278 174 278 c 0
 144 278 110 246 100 236 c 1
 100 295 l 1
 127 325 157 347 174 347 c 0
 240 347 278 264 353 264 c 0
 382 264 416 296 426 306 c 1
EndSplineSet
Validated: 1
EndChar

StartChar: grave
Encoding: 96 96 94
Width: 525
VWidth: 833
Flags: HW
LayerCount: 2
Fore
SplineSet
285 657 m 1
 329 428 l 1
 270 428 l 1
 196 656 l 1
 285 657 l 1
EndSplineSet
Validated: 1
EndChar

StartChar: exclamdown
Encoding: 161 161 159
Width: 525
VWidth: 833
Flags: HW
LayerCount: 2
Fore
SplineSet
226 430 m 1
 302 430 l 1
 302 9 l 1
 226 9 l 1
 226 430 l 1
192 588 m 0
 192 623 228 657 264 657 c 0
 299 657 332 623 332 587 c 0
 332 552 299 518 264 518 c 0
 229 518 192 553 192 588 c 0
EndSplineSet
Validated: 1
EndChar

StartChar: cent
Encoding: 162 162 160
Width: 519
VWidth: 833
Flags: HW
LayerCount: 2
Fore
SplineSet
348 343 m 1025
431 384 m 1025
242 382 m 1
 227 375 l 2
 193 357 171 323 171 281 c 0
 171 239 194 206 227 188 c 2
 242 180 l 1
 242 382 l 1
295 559 m 1
 295 466 l 1
 303 465 l 2
 351 458 391 430 417 388 c 1
 401 380 369 366 350 356 c 1
 332 375 317 380 295 388 c 1
 295 175 l 1
 316 181 327 185 342 200 c 1
 372 184 379 180 410 159 c 1
 370 99 319 92 295 88 c 1
 295 -11 l 1
 242 -11 l 1
 242 91 l 1
 234 93 l 2
 153 113 102 185 102 281 c 0
 102 377 153 443 234 462 c 2
 242 464 l 1
 242 559 l 1
 295 559 l 1
EndSplineSet
Validated: 1
EndChar

StartChar: sterling
Encoding: 163 163 161
Width: 521
VWidth: 833
Flags: HW
LayerCount: 2
Fore
SplineSet
422 521 m 1
 358 521 l 1
 358 522 l 2
 358 545 357 561 349 573 c 0
 339 590 320 592 294 592 c 0
 224 592 224 522 224 474 c 2
 224 354 l 1
 325 354 l 1
 325 288 l 1
 224 288 l 1
 224 63 l 1
 449 63 l 1
 449 8 l 1
 72 8 l 1
 72 63 l 1
 162 63 l 1
 162 288 l 1
 72 288 l 1
 72 354 l 1
 162 354 l 1
 162 469 l 2
 162 564 199 658 293 658 c 0
 388 658 420 617 422 521 c 1
EndSplineSet
Validated: 1
EndChar

StartChar: currency
Encoding: 164 164 162
Width: 538
VWidth: 833
Flags: HW
LayerCount: 2
Fore
SplineSet
89 204 m 0
 89 249 107 278 117 294 c 1
 68 344 l 1
 110 384 l 1
 160 336 l 1
 166 339 l 2
 196 355 230 364 265 364 c 0
 321 364 352 344 370 333 c 1
 422 384 l 1
 465 338 l 1
 412 286 l 1
 424 268 442 242 442 196 c 0
 442 155 428 123 420 106 c 1
 470 55 l 1
 428 13 l 1
 377 60 l 1
 371 57 l 2
 338 42 302 35 268 35 c 0
 210 35 175 55 159 64 c 1
 108 13 l 1
 68 55 l 1
 120 108 l 1
 116 114 l 2
 98 141 89 173 89 204 c 0
259 311 m 0
 186 311 137 258 137 198 c 0
 137 136 187 81 264 81 c 0
 333 81 395 127 395 192 c 0
 395 255 333 311 259 311 c 0
EndSplineSet
Validated: 1
EndChar

StartChar: yen
Encoding: 165 165 163
Width: 514
VWidth: 833
Flags: HW
LayerCount: 2
Fore
SplineSet
227 334 m 1
 227 336 l 1
 104 658 l 1
 166 658 l 1
 256 365 l 1
 349 658 l 1
 410 658 l 1
 285 336 l 1
 285 334 l 1
 285 322 l 1
 386 322 l 1
 386 288 l 1
 285 288 l 1
 285 196 l 1
 386 196 l 1
 386 163 l 1
 285 163 l 1
 285 10 l 1
 227 10 l 1
 227 163 l 1
 121 163 l 1
 121 195 l 1
 227 195 l 1
 227 288 l 1
 121 288 l 1
 121 321 l 1
 227 321 l 1
 227 334 l 1
EndSplineSet
Validated: 1
EndChar

StartChar: brokenbar
Encoding: 166 166 164
Width: 531
VWidth: 833
Flags: HW
LayerCount: 2
Fore
SplineSet
293 -76 m 1
 238 -76 l 1
 238 315 l 1
 293 315 l 1
 293 -76 l 1
293 418 m 1
 238 418 l 1
 238 742 l 1
 293 742 l 1
 293 418 l 1
EndSplineSet
Validated: 1
EndChar

StartChar: section
Encoding: 167 167 165
Width: 532
VWidth: 833
Flags: HW
LayerCount: 2
Fore
SplineSet
275 222 m 0
 328 222 362 245 362 276 c 0
 362 288 357 299 349 307 c 0
 332 323 303 331 268 331 c 0
 216 331 180 312 180 280 c 0
 180 248 220 222 275 222 c 0
440 274 m 0
 440 249 423 220 389 199 c 2
 377 191 l 1
 389 182 l 2
 412 164 423 145 423 119 c 0
 423 59 360 13 265 13 c 0
 171 13 100 59 91 109 c 1
 165 109 l 1
 172 80 208 57 252 57 c 0
 303 57 349 87 349 124 c 0
 349 159 310 172 269 172 c 0
 181 172 104 232 104 283 c 0
 104 306 122 338 155 361 c 2
 165 368 l 1
 156 376 l 2
 134 397 122 420 122 441 c 0
 122 491 186 548 278 548 c 0
 365 548 434 494 441 433 c 1
 366 433 l 1
 359 470 316 495 272 495 c 0
 231 495 200 472 200 439 c 0
 200 420 214 388 249 388 c 0
 350 388 440 334 440 274 c 0
EndSplineSet
Validated: 1
EndChar

StartChar: dieresis
Encoding: 168 168 166
Width: 519
VWidth: 833
Flags: HW
LayerCount: 2
Fore
SplineSet
152 537 m 0
 152 555 172 574 192 574 c 0
 210 574 228 556 228 538 c 0
 228 519 209 499 192 499 c 0
 173 499 152 519 152 537 c 0
290 537 m 0
 290 555 310 575 328 575 c 0
 347 575 366 556 366 538 c 0
 366 519 349 499 330 499 c 0
 312 499 290 519 290 537 c 0
EndSplineSet
Validated: 1
EndChar

StartChar: copyright
Encoding: 169 169 167
Width: 600
VWidth: 833
Flags: HW
LayerCount: 2
Fore
SplineSet
297 597 m 0
 207 597 84 513 84 346 c 0
 84 141 199 66 309 66 c 0
 421 66 517 132.629686693 517 361 c 3
 517 521.25292509 395 597 297 597 c 0
568 363 m 3
 568 95.0223889949 464 -1 309 -1 c 0
 168 -1 32 101 32 346 c 0
 32 544 178 662 297 662 c 0
 424 662 568 564 568 363 c 3
403 398 m 1
 327 370 l 1
 327 429 327 432 295 432 c 0
 266 432 262 429 262 397 c 0
 262 384 263 367 263 344 c 0
 263 318 262 299 262 283 c 0
 262 253 266 240 295 240 c 0
 318 240 319 258 319 301 c 5
 403 301 l 1
 408 281 410 263 410 247 c 0
 410 185 375 150 304 150 c 0
 226 150 187 195 187 344 c 0
 187 470 229 523 295 523 c 0
 357 523 403 484 403 398 c 1
EndSplineSet
EndChar

StartChar: guillemotleft
Encoding: 171 171 168
Width: 526
VWidth: 833
Flags: HW
LayerCount: 2
Fore
SplineSet
260 355 m 1
 155 267 l 1
 260 174 l 1
 260 113 l 1
 105 267 l 1
 260 411 l 1
 260 355 l 1
421 353 m 1
 327 267 l 1
 421 175 l 1
 421 113 l 1
 266 267 l 1
 421 411 l 1
 421 353 l 1
EndSplineSet
Validated: 1
EndChar

StartChar: logicalnot
Encoding: 172 172 169
Width: 530
VWidth: 833
Flags: HW
LayerCount: 2
Fore
SplineSet
358 282 m 1
 100 282 l 1
 100 346 l 1
 430 346 l 1
 430 152 l 1
 358 152 l 1
 358 282 l 1
EndSplineSet
Validated: 1
EndChar

StartChar: softhyphen
Encoding: 173 173 170
Width: 526
VWidth: 833
Flags: HW
LayerCount: 2
Fore
SplineSet
426 248 m 1
 100 248 l 1
 100 317 l 1
 426 317 l 1
 426 248 l 1
EndSplineSet
Validated: 1
EndChar

StartChar: registered
Encoding: 174 174 171
Width: 554
VWidth: 833
Flags: HW
LayerCount: 2
Fore
SplineSet
267 597 m 0
 176 597 84 513 84 346 c 0
 84 141 164 66 267 66 c 0
 379 66 464 133 471 361 c 1
 471 521 370 597 267 597 c 0
522 363 m 1
 515 99 422 -1 267 -1 c 0
 133 -1 32 101 32 346 c 0
 32 544 145 662 267 662 c 0
 389 662 522 564 522 363 c 1
263 313 m 1
 233 313 l 1
 233 150 l 1
 181 150 l 1
 181 521 l 1
 181 521 224 521 304 521 c 0
 346 521 386 466 386 416 c 0
 386 373 354 326 319 316 c 1
 388 150 l 1
 329 150 l 1
 263 313 l 1
234 470 m 1
 234 357 l 1
 246 357 253 357 279 357 c 0
 309 357 338 385 338 416 c 0
 338 445 311 470 279 470 c 0
 255 470 256 470 234 470 c 1
EndSplineSet
Validated: 1
EndChar

StartChar: macron
Encoding: 175 175 172
Width: 526
VWidth: 833
Flags: HW
LayerCount: 2
Fore
SplineSet
426 712 m 1
 100 712 l 1
 100 781 l 1
 426 781 l 1
 426 712 l 1
EndSplineSet
Validated: 1
EndChar

StartChar: degree
Encoding: 176 176 173
Width: 525
VWidth: 833
Flags: HW
LayerCount: 2
Fore
SplineSet
151 663 m 0
 151 727 202 778 263 778 c 0
 324 778 374 727 374 663 c 0
 374 599 324 548 263 548 c 0
 202 548 151 599 151 663 c 0
192 663 m 0
 192 623 224 591 263 591 c 0
 302 591 333 623 333 663 c 0
 333 703 302 736 263 736 c 0
 224 736 192 703 192 663 c 0
EndSplineSet
Validated: 1
EndChar

StartChar: plusminus
Encoding: 177 177 174
Width: 539
VWidth: 833
Flags: HW
LayerCount: 2
Fore
SplineSet
291 570 m 1
 291 466 l 1
 439 466 l 1
 439 398 l 1
 291 398 l 1
 291 296 l 1
 223 296 l 1
 223 398 l 1
 100 398 l 1
 100 466 l 1
 223 466 l 1
 223 570 l 1
 291 570 l 1
426 192 m 1
 426 118 l 1
 100 118 l 1
 100 192 l 1
 426 192 l 1
EndSplineSet
Validated: 1
EndChar

StartChar: acute
Encoding: 180 180 175
Width: 524
VWidth: 833
Flags: HW
LayerCount: 2
Fore
SplineSet
331 658 m 1
 251 497 l 1
 193 497 l 1
 243 658 l 1
 331 658 l 1
EndSplineSet
Validated: 1
EndChar

StartChar: mu
Encoding: 181 181 176
Width: 530
VWidth: 833
Flags: HW
LayerCount: 2
Fore
SplineSet
462 -17 m 1
 402 -17 l 1
 394 -6 381 48 381 49 c 2
 376 70 l 1
 363 53 l 2
 339 21 318 10 278 10 c 0
 245 10 217 30 191 49 c 0
 186 53 185 53 179 57 c 1
 176 57 l 2
 168 57 166 49 166 42 c 0
 166 40 166 38 166 38 c 2
 166 20 165 -21 158 -62 c 0
 151 -102 128 -143 120 -157 c 1
 68 -157 l 1
 80 -137 102 -100 108 -62 c 0
 113 -31 114 2 114 30 c 2
 114 393 l 1
 178 393 l 1
 178 139 l 1
 187 117 217 66 278 66 c 0
 360 66 375 135 375 137 c 2
 375 393 l 1
 439 393 l 1
 439 51 l 2
 439 37 453 0 462 -17 c 1
EndSplineSet
Validated: 1
EndChar

StartChar: paragraph
Encoding: 182 182 177
Width: 522
VWidth: 833
Flags: HW
LayerCount: 2
Fore
SplineSet
100 485 m 0
 100 555 163 655 224 655 c 2
 422 655 l 1
 422 10 l 1
 373 10 l 1
 373 616 l 1
 277 616 l 1
 277 10 l 1
 227 10 l 1
 227 315 l 1
 227 315 227 315 184 315 c 0
 143 315 100 410 100 485 c 0
EndSplineSet
Validated: 1
EndChar

StartChar: periodcentered
Encoding: 183 183 178
Width: 525
VWidth: 833
Flags: HW
LayerCount: 2
Fore
SplineSet
192 280 m 0
 192 315 229 350 264 350 c 0
 299 350 332 316 332 281 c 0
 332 245 299 211 264 211 c 0
 228 211 192 245 192 280 c 0
EndSplineSet
Validated: 1
EndChar

StartChar: cedilla
Encoding: 184 184 179
Width: 527
VWidth: 833
Flags: HW
LayerCount: 2
Fore
SplineSet
326 -111 m 0
 326 -117 324 -127 318 -137 c 0
 310 -149 294 -161 259 -161 c 0
 230 -161 202 -133 201 -132 c 2
 213 -119 l 1
 218 -123 217 -123 218 -124 c 0
 235 -139 244 -147 259 -147 c 2
 260 -147 l 2
 269 -147 278 -147 287 -144 c 0
 299 -140 308 -128 308 -111 c 0
 308 -96 289 -83 252 -66 c 1
 268 -6 l 1
 287 -6 l 1
 274 -57 l 1
 290 -66 326 -85 326 -111 c 0
EndSplineSet
Validated: 1
EndChar

StartChar: guillemotright
Encoding: 187 187 180
Width: 526
VWidth: 833
Flags: HW
LayerCount: 2
Fore
SplineSet
421 267 m 1
 266 113 l 1
 266 174 l 1
 371 267 l 1
 266 355 l 1
 266 411 l 1
 421 267 l 1
260 267 m 1
 105 113 l 1
 105 175 l 1
 199 267 l 1
 105 353 l 1
 105 411 l 1
 260 267 l 1
EndSplineSet
Validated: 1
EndChar

StartChar: onehalf
Encoding: 189 189 181
Width: 526
Flags: HW
LayerCount: 2
Fore
SplineSet
371 833 m 1
 163 0 l 1
 123 0 l 1
 331 833 l 1
 371 833 l 1
59 764 m 1
 107 802 l 1
 143 802 l 1
 143 483 l 1
 195 483 l 1
 195 441 l 1
 59 441 l 1
 59 483 l 1
 107 483 l 1
 107 746 l 1
 59 709 l 1
 59 764 l 1
301 95 m 1
 301 138 l 1
 367 207 420 280 420 334 c 0
 420 383 402 386 384 386 c 0
 359 386 350 367 301 326 c 1
 301 378 l 1
 338 409 352 429 384 429 c 0
 428 429 467 392 467 336 c 0
 467 283 424 219 360 138 c 1
 464 138 l 1
 464 95 l 1
 301 95 l 1
EndSplineSet
Validated: 1
EndChar

StartChar: threequarters
Encoding: 190 190 182
Width: 535
Flags: HW
LayerCount: 2
Fore
SplineSet
391 243 m 1
 391 352 l 1
 356 243 l 1
 391 243 l 1
315 200 m 1
 315 243 l 1
 386 449 l 1
 425 449 l 1
 425 243 l 1
 457 243 l 1
 457 200 l 1
 425 200 l 1
 425 192 425 182 425 175 c 0
 425 145 427 125 427 89 c 1
 391 89 l 1
 391 200 l 1
 315 200 l 1
419 833 m 1
 204 0 l 1
 164 0 l 1
 377 833 l 1
 419 833 l 1
204 609 m 1
 230 590 249 557 249 531 c 0
 249 483 209 442 167 442 c 0
 135 442 99 472 79 514 c 1
 120 514 l 1
 132 492 150 478 165 478 c 0
 185 478 204 501 204 527 c 0
 204 561 184 576 164 611 c 1
 184 639 204 656 204 685 c 0
 204 715 186 733 157 733 c 0
 144 733 129 723 119 709 c 1
 119 709 91 709 78 709 c 1
 78 709 111 775 157 775 c 0
 204 775 250 732 250 678 c 0
 250 657 230 627 204 609 c 1
EndSplineSet
Validated: 1
EndChar

StartChar: questiondown
Encoding: 191 191 183
Width: 531
VWidth: 833
Flags: HW
LayerCount: 2
Fore
SplineSet
169 160 m 0
 169 90 202 71 269 71 c 0
 327 71 354 112 363 128 c 1
 428 128 l 1
 420 113 404 88 381 64 c 0
 353 35 315 9 269 9 c 0
 225 9 188 19 160 39 c 0
 125 64 103 103 103 160 c 0
 103 188 130 216 161 246 c 0
 191 276 226 308 226 350 c 2
 226 440 l 1
 325 440 l 1
 312 421 295 387 295 350 c 0
 295 286 169 218 169 160 c 0
259 518 m 0
 224 518 189 552 189 587 c 0
 189 623 223 658 258 658 c 0
 296 658 367 621 367 588 c 0
 367 555 297 518 259 518 c 0
EndSplineSet
Validated: 1
EndChar

StartChar: AE
Encoding: 198 198 190
Width: 481
VWidth: 833
Flags: HW
LayerCount: 2
Fore
SplineSet
242 529 m 1
 224 531 l 1
 170 222 l 1
 242 222 l 1
 242 529 l 1
303 652 m 2
 355 652 406 652 428 653 c 1
 428 592 l 1
 299 592 l 1
 299 373 l 1
 428 373 l 1
 428 314 l 1
 299 314 l 1
 299 66 l 1
 399 66 l 2
 411 66 421 66 428 66 c 1
 428 10 l 1
 242 10 l 1
 242 162 l 1
 155 162 l 1
 126 29 127 29 123 10 c 1
 53 10 l 1
 61 51 90 190 118 330 c 0
 147 473 176 613 182 653 c 1
 193 652 207 652 302 652 c 2
 303 652 l 2
EndSplineSet
Validated: 1
EndChar

StartChar: Eth
Encoding: 208 208 200
Width: 494
VWidth: 833
Flags: HW
LayerCount: 2
Fore
SplineSet
228 589 m 2
 178 589 l 1
 178 370 l 1
 260 370 l 1
 260 302 l 1
 178 302 l 1
 178 63 l 1
 228 63 l 2
 282 63 368 187 368 332 c 0
 368 485 284 589 228 589 c 2
110 10 m 1
 110 302 l 1
 68 302 l 1
 68 370 l 1
 110 370 l 1
 110 655 l 1
 266 655 l 2
 330 655 426 512 426 332 c 0
 426 167 329 10 266 10 c 2
 110 10 l 1
EndSplineSet
Validated: 1
EndChar

StartChar: multiply
Encoding: 215 215 207
Width: 529
VWidth: 833
Flags: HW
LayerCount: 2
Fore
SplineSet
163 462 m 1
 261 326 l 1
 368 462 l 1
 440 462 l 1
 316 282 l 1
 434 81 l 1
 373 81 l 1
 263 247 l 1
 155 81 l 1
 89 81 l 1
 202 282 l 1
 90 462 l 1
 163 462 l 1
EndSplineSet
Validated: 1
EndChar

StartChar: Oslash
Encoding: 216 216 208
Width: 482
VWidth: 833
Flags: HW
LayerCount: 2
Fore
SplineSet
353 507 m 1025
307 600 m 0
 311 594 311 593 316 585 c 1
 322 585 l 2
 327 585 329 588 330 589 c 0
 332 592 357 654 357 655 c 1
 400 655 l 1
 394 640 385 615 375 590 c 0
 344 510 344 509 344 507 c 2
 344 506 l 1
 355 452 357 382 357 343 c 2
 357 342 l 2
 359 311 359 283 359 256 c 0
 359 91 325 10 246 10 c 0
 214 10 208 23 189 58 c 0
 182 71 179 74 171 87 c 1
 166 87 l 2
 164 87 161 87 158 83 c 0
 156 80 124 11 124 10 c 1
 82 10 l 1
 88 25 98 52 108 78 c 0
 140 161 140 161 140 163 c 2
 140 164 l 1
 129 210 123 267 123 343 c 0
 123 633 202 658 238 658 c 0
 273 658 282 641 307 600 c 0
201 229 m 1
 277 511 l 1
 277 513 l 2
 277 528 277 543 274 557 c 0
 269 575 258 588 238 588 c 0
 205 588 196 569 196 440 c 0
 196 382 198 327 201 229 c 1
290 108 m 0
 301 128 303 164 303 253 c 0
 303 292 291 340 291 398 c 2
 291 463 l 1
 213 163 l 1
 213 163 213 163 213 143 c 0
 213 142 213 141 213 140 c 0
 213 121 214 87 246 87 c 0
 263 87 279 88 290 108 c 0
EndSplineSet
Validated: 1
EndChar

StartChar: Thorn
Encoding: 222 222 214
Width: 497
VWidth: 833
Flags: HW
LayerCount: 2
Fore
SplineSet
279 172 m 2
 152 172 l 1
 152 12 l 1
 90 12 l 1
 90 654 l 1
 152 654 l 1
 152 574 l 1
 279 574 l 2
 371 574 407 493 407 377 c 0
 407 262 372 172 279 172 c 2
153 511 m 1
 153 234 l 1
 279 234 l 2
 343 234 343 304 343 373 c 0
 343 374 343 375 343 376 c 0
 343 492 303 511 279 511 c 2
 153 511 l 1
EndSplineSet
Validated: 1
EndChar

StartChar: germandbls
Encoding: 223 223 215
Width: 487
VWidth: 833
Flags: HW
LayerCount: 2
Fore
SplineSet
296 63 m 2
 344 63 345 124 345 173 c 2
 345 174 l 1
 332 249 198 296 198 359 c 0
 198 403 282 464 282 516 c 0
 282 518 282 519 282 521 c 0
 282 552 282 602 228 602 c 0
 172 602 144 535 144 482 c 2
 144 -66 l 1
 82 -66 l 1
 82 482 l 2
 82 575 139 668 227 668 c 0
 314 668 343 607 343 530 c 2
 343 530 343 525 343 515 c 0
 343 483 311 448 282 418 c 0
 262 393 249 376 249 359 c 0
 249 340 267 321 304 288 c 0
 346 255 398 212 405 172 c 1
 405 79 350 20 296 20 c 1
 276 36 201 35 195 106 c 1
 241 106 l 1
 245 63 273 63 287 63 c 2
 296 63 l 2
EndSplineSet
Validated: 1
EndChar

StartChar: ae
Encoding: 230 230 222
Width: 479
VWidth: 833
Flags: HW
LayerCount: 2
Fore
SplineSet
271 231 m 2
 271 221 l 1
 383 221 l 1
 383 231 l 2
 383 282 362 328 327 328 c 0
 291 328 271 275 271 231 c 2
388 107 m 1
 412 70 l 1
 384 33 357 11 327 11 c 0
 293 11 270 47 247 85 c 1
 240 68 240 67 239 64 c 0
 231 44 218 11 164 11 c 0
 97 11 51 58 51 123 c 0
 51 187 94 238 162 238 c 0
 190 238 201 232 225 219 c 1
 225 270 l 1
 213 294 196 323 164 323 c 0
 133 323 110 302 98 290 c 1
 81 309 81 309 71 320 c 1
 81 338 120 385 166 385 c 2
 169 385 l 2
 196 385 221 366 240 337 c 2
 248 325 l 1
 254 338 l 2
 271 370 295 385 327 385 c 0
 375 385 426 326 428 172 c 1
 271 172 l 1
 271 162 l 2
 271 111 295 68 327 68 c 0
 362 68 376 87 388 107 c 1
164 56 m 0
 186 56 200 67 207 84 c 0
 213 97 214 112 214 128 c 0
 214 164 206 184 164 184 c 0
 110 184 102 154 102 125 c 0
 102 60 153 56 164 56 c 0
EndSplineSet
Validated: 1
EndChar

StartChar: eth
Encoding: 240 240 232
Width: 516
VWidth: 833
Flags: HW
LayerCount: 2
Fore
SplineSet
232 312 m 0
 191 312 150 265 150 205 c 0
 150 145 191 98 243 98 c 0
 292 98 336 145 356 205 c 1
 356 265 312 312 232 312 c 0
86 214 m 0
 86 325 149 398 232 398 c 2
 241 398 l 2
 280 398 290 394 351 363 c 1
 351 371 345 390 343 390 c 0
 343 390 342 390 342 388 c 1
 342 388 303 490 255 532 c 1
 255 542 248 548 248 538 c 1
 248 539 247 539 246 539 c 0
 231 539 116 477 116 468 c 1
 116 478 116 513 116 513 c 2
 116 522 206 573 220 573 c 0
 221 573 l 1
 193 613 170 640 144 668 c 1
 180 668 l 1
 217 642 249 613 282 595 c 1
 282 604 400 663 416 663 c 0
 417 663 418 663 418 662 c 2
 418 662 418 620 418 610 c 1
 418 611 418 611 416 611 c 0
 403 611 345 582 332 569 c 1
 335 568 339 562 339 555 c 1
 343 551 347 545 352 539 c 0
 393 490 400 467 422 384 c 1
 424 357 430 295 430 224 c 1
 410 76 350 20 243 20 c 0
 151 20 86 101 86 214 c 0
EndSplineSet
Validated: 1
EndChar

StartChar: divide
Encoding: 247 247 239
Width: 512
VWidth: 833
Flags: HW
LayerCount: 2
Fore
SplineSet
412 248 m 1
 100 248 l 1
 100 317 l 1
 412 317 l 1
 412 248 l 1
218 425 m 0
 218 443 237 462 257 462 c 0
 275 462 294 444 294 426 c 0
 294 407 275 387 258 387 c 0
 239 387 218 407 218 425 c 0
218 120 m 0
 218 138 238 158 256 158 c 0
 275 158 294 139 294 121 c 0
 294 102 276 82 257 82 c 0
 239 82 218 102 218 120 c 0
EndSplineSet
Validated: 1
EndChar

StartChar: oslash
Encoding: 248 248 240
Width: 494
VWidth: 833
Flags: HW
LayerCount: 2
Fore
SplineSet
327 265 m 1
 201 88 l 1
 213 78 228 66 251 66 c 0
 297 66 338 127 338 205 c 0
 338 233 337 237 327 265 c 1
161 142 m 2
 167 126 l 1
 294 305 l 1
 291 311 l 2
 283 327 267 333 250 333 c 0
 198 333 149 271 149 212 c 0
 149 189 156 156 161 142 c 2
137 330 m 0
 161 367 200 388 247 388 c 0
 280 388 295 378 331 353 c 1
 355 392 l 1
 416 392 l 1
 354 311 l 1
 368 286 382 258 382 200 c 0
 382 81 327 10 260 10 c 0
 217 10 182 41 164 55 c 1
 128 10 l 1
 78 10 l 1
 135 89 l 1
 132 95 l 2
 116 125 107 162 107 209 c 0
 107 260 117 300 137 330 c 0
EndSplineSet
Validated: 1
EndChar

StartChar: thorn
Encoding: 254 254 246
Width: 497
VWidth: 833
Flags: HW
LayerCount: 2
Fore
SplineSet
249 3 m 0
 207 3 183 17 152 36 c 1
 152 31 152 -167 152 -167 c 1
 90 -167 l 1
 90 664 l 1
 152 664 l 1
 152 664 152 360 152 357 c 1
 152 360 167 369 167 366 c 1
 194 383 222 391 249 391 c 0
 340 391 407 310 407 194 c 0
 407 81 342 3 249 3 c 0
249 88 m 0
 300 88 343 134 343 194 c 0
 343 254 300 301 249 301 c 0
 199 301 156 254 156 194 c 0
 156 134 199 88 249 88 c 0
EndSplineSet
Validated: 1
EndChar

StartChar: diaeresiscomb
Encoding: 256 776 248
Width: 519
VWidth: 833
Flags: HW
LayerCount: 2
Fore
SplineSet
152 537 m 0
 152 555 172 574 192 574 c 0
 210 574 228 556 228 538 c 0
 228 519 209 499 192 499 c 0
 173 499 152 519 152 537 c 0
290 537 m 0
 290 555 310 575 328 575 c 0
 347 575 366 556 366 538 c 0
 366 519 349 499 330 499 c 0
 312 499 290 519 290 537 c 0
EndSplineSet
Validated: 1
EndChar

StartChar: dotlessi
Encoding: 257 305 249
Width: 493
VWidth: 833
Flags: HW
LayerCount: 2
Fore
SplineSet
275 74 m 1
 403 74 l 1
 403 11 l 1
 243 11 l 2
 225 11 211 25 211 42 c 2
 215 308 l 1
 90 308 l 1
 90 371 l 1
 245 371 l 2
 262 371 277 356 277 339 c 0
 276 173 275 87 275 84 c 2
 275 74 l 1
EndSplineSet
Validated: 1
EndChar

StartChar: acutecomb
Encoding: 258 769 250
Width: 524
VWidth: 833
Flags: HW
LayerCount: 2
Fore
SplineSet
331 658 m 1
 251 497 l 1
 193 497 l 1
 243 658 l 1
 331 658 l 1
EndSplineSet
Validated: 1
EndChar

StartChar: gravecomb
Encoding: 259 768 253
Width: 524
VWidth: 833
Flags: HW
LayerCount: 2
Fore
SplineSet
331 497 m 1
 273 497 l 1
 193 658 l 1
 281 658 l 1
 331 497 l 1
EndSplineSet
Validated: 1
EndChar

StartChar: fraction
Encoding: 260 8260 254
Width: 526
VWidth: 833
Flags: HW
LayerCount: 2
Fore
SplineSet
183 11 m 1
 104 11 l 1
 347 658 l 1
 422 658 l 1
 183 11 l 1
EndSplineSet
Validated: 1
EndChar

StartChar: Scaron
Encoding: 160 352 255
Width: 490
Flags: HW
LayerCount: 2
Fore
SplineSet
320 499 m 1
 310 539 282 597 237 597 c 0
 209 597 161 575 161 521 c 0
 161 394 400 361 400 190 c 0
 400 123 365 10 255 10 c 0
 136 10 105 144 98 188 c 1
 178 188 l 1
 185 144 212 87 262 87 c 2
 263 87 l 2
 324 88 331 150 331 177 c 0
 331 185 330 191 330 193 c 0
 329 239 279 273 234 313 c 1
 168 363 90 418 90 501 c 0
 90 584 162 657 245 657 c 0
 343 657 380 540 390 499 c 1
 320 499 l 1
242 717 m 1
 90 964 l 1
 160 964 l 1
 242 814 l 1
 334 964 l 1
 400 964 l 1
 242 717 l 1
EndSplineSet
Validated: 1
EndChar

StartChar: circumflexcmb
Encoding: 261 770 257
Width: 526
VWidth: 833
Flags: HW
LayerCount: 2
Fore
SplineSet
260 538 m 1
 410 402 l 1
 350 402 l 1
 261 468 l 1
 181 402 l 1
 116 402 l 1
 260 538 l 1
EndSplineSet
Validated: 1
EndChar

StartChar: tildecomb
Encoding: 262 771 258
Width: 526
VWidth: 833
Flags: HW
LayerCount: 2
Fore
SplineSet
426 306 m 1
 426 246 l 1
 399 216 369 196 353 196 c 0
 287 196 249 278 174 278 c 0
 144 278 110 246 100 236 c 1
 100 295 l 1
 127 325 157 347 174 347 c 0
 240 347 278 264 353 264 c 0
 382 264 416 296 426 306 c 1
EndSplineSet
Validated: 1
EndChar

StartChar: cedillacmb
Encoding: 263 807 259
Width: 527
VWidth: 833
Flags: HW
LayerCount: 2
Fore
SplineSet
326 -111 m 0
 326 -117 324 -127 318 -137 c 0
 310 -149 294 -161 259 -161 c 0
 230 -161 202 -133 201 -132 c 2
 213 -119 l 1
 218 -123 217 -123 218 -124 c 0
 235 -139 244 -147 259 -147 c 2
 260 -147 l 2
 269 -147 278 -147 287 -144 c 0
 299 -140 308 -128 308 -111 c 0
 308 -98 293 -85 252 -66 c 1
 268 -10 l 1
 287 -10 l 1
 274 -57 l 1
 290 -66 326 -85 326 -111 c 0
EndSplineSet
Validated: 1
EndChar

StartChar: ringcmb
Encoding: 264 778 260
Width: 519
VWidth: 833
Flags: HW
LayerCount: 2
Fore
SplineSet
148 663 m 0
 148 727 199 778 260 778 c 0
 321 778 372 727 372 663 c 0
 372 599 321 548 260 548 c 0
 199 548 148 599 148 663 c 0
188 663 m 0
 188 623 221 591 260 591 c 0
 299 591 330 623 330 663 c 0
 330 703 299 736 260 736 c 0
 221 736 188 703 188 663 c 0
EndSplineSet
Validated: 1
EndChar

StartChar: acutedblnosp
Encoding: 265 779 261
Width: 527
VWidth: 833
Flags: HW
LayerCount: 2
Fore
SplineSet
239 658 m 1
 152 497 l 1
 94 497 l 1
 145 658 l 1
 239 658 l 1
433 658 m 1
 353 497 l 1
 288 497 l 1
 344 658 l 1
 433 658 l 1
EndSplineSet
Validated: 1
EndChar

StartChar: onequarter
Encoding: 266 188 262
Width: 534
Flags: HW
LayerCount: 2
Fore
SplineSet
378 243 m 1
 378 352 l 1
 346 243 l 1
 378 243 l 1
305 200 m 1
 305 243 l 1
 374 449 l 1
 412 449 l 1
 412 243 l 1
 444 243 l 1
 444 200 l 1
 412 200 l 1
 412 192 412 182 412 175 c 0
 412 145 414 125 414 89 c 1
 378 89 l 1
 378 200 l 1
 305 200 l 1
406 833 m 1
 194 0 l 1
 154 0 l 1
 366 833 l 1
 406 833 l 1
90 764 m 1
 138 802 l 1
 174 802 l 1
 174 483 l 1
 226 483 l 1
 226 441 l 1
 90 441 l 1
 90 483 l 1
 138 483 l 1
 138 746 l 1
 90 709 l 1
 90 764 l 1
EndSplineSet
Validated: 1
EndChar
